<?xml version="1.0" encoding="utf-8"?>
<!-- Generator: Adobe Illustrator 25.2.0, SVG Export Plug-In . SVG Version: 6.00 Build 0)  -->
<svg version="1.1" id="Calque_1" xmlns="http://www.w3.org/2000/svg" xmlns:xlink="http://www.w3.org/1999/xlink" x="0px" y="0px"
	 viewBox="0 0 141.73 141.73" style="enable-background:new 0 0 141.73 141.73;" xml:space="preserve">
<style type="text/css">
	.st0{fill:#010202;}
	.st1{fill:#FAB400;}
</style>
<g>
	<g>
		<path class="st0" d="M129.3,141.3H12.56c-6.9,0-12.5-5.59-12.5-12.5V12.07c0-6.91,5.59-12.5,12.5-12.5H129.3
			c6.9,0,12.5,5.59,12.5,12.5v116.74C141.79,135.71,136.2,141.3,129.3,141.3z"/>
		<g>
		</g>
	</g>
	<g>
		<path class="st1" d="M141.8,70.93h-18.61c0-0.17,0.02-0.33,0.02-0.5c0-26.23-22.04-46.92-48.02-46.92
			c-22.07,0-40.72,14.71-46.21,35.04L18.27,63.3c-1.25,0.56-2.07,1.79-2.11,3.16l-0.22,7.3c-0.05,1.51,0.86,2.88,2.26,3.42
			l10.36,4.1c5.04,20.78,24.76,36.07,46.62,36.07c22.87,0,42.82-16.2,47.13-38.09h19.47 M75.19,109.16
			c-20.83,0-38.85-17.28-38.85-38.23c0-21.44,17.28-39.22,38.85-39.22c21.32,0,38.97,17.52,38.97,38.85S96.39,109.16,75.19,109.16z"
			/>
	</g>
</g>
<circle class="st1" cx="75.53" cy="70.2" r="32.95"/>
</svg>
