<svg width="184" height="72" viewBox="0 0 184 72" fill="none" xmlns="http://www.w3.org/2000/svg">
<rect x="35.1074" y="43.438" width="115.438" height="26.7769" fill="black"/>
<path d="M58.8642 57.209C58.8642 52.7757 55.1993 49.1313 50.7713 49.1313C46.2923 49.1313 42.7032 52.8255 42.7032 57.2849C42.7032 61.6422 46.444 65.2344 50.7713 65.2344C55.1744 65.2344 58.8642 61.6422 58.8642 57.209ZM75.1628 53.3879C75.1628 51.8338 74.3736 50.6095 72.9742 49.9475C71.9054 49.4374 70.9125 49.4635 69.7418 49.4635H66.4832V57.2885H66.4844V57.3134H69.7406C70.9113 57.3134 71.9042 57.3383 72.973 56.8282C74.3736 56.165 75.1628 54.9419 75.1628 53.3879ZM101.266 60.5698C100.147 60.5698 99.3575 60.6718 98.3397 61.106C98.6193 61.6672 99.0269 62.1761 99.4346 62.6103C101.038 64.3435 103.175 65.2356 105.543 65.2356C107.019 65.2356 108.47 64.8785 109.691 64.0125C108.902 63.4004 107.961 62.6103 107.121 62.1013C105.415 61.0799 103.251 60.5698 101.266 60.5698ZM111.166 62.9911C112.719 61.4619 113.761 59.5021 113.761 57.2861C113.761 52.7247 110.072 49.1313 105.542 49.1313C100.935 49.1313 97.2448 52.7247 97.2448 57.362C97.2448 58.1011 97.3467 58.7892 97.5754 59.5009C98.899 59.0679 100.147 58.8651 101.546 58.8651C105.67 58.8663 108.163 60.4168 111.166 62.9911ZM145.259 66.607H134.957V47.7588H145.259V49.4623H136.836V56.2421H144.979V57.9457H136.836V64.9034H145.259V66.607ZM131.239 59.5033C131.239 60.7774 131.061 62.2805 130.528 63.4265C129.461 65.7184 127.323 66.938 124.828 66.938C122.334 66.938 120.197 65.7172 119.129 63.4265C118.596 62.2805 118.418 60.7762 118.418 59.5033V47.76H120.299V59.5033C120.299 60.5224 120.425 61.9993 120.935 62.9175C121.775 64.4467 123.099 65.2356 124.83 65.2356C126.561 65.2356 127.884 64.4455 128.723 62.9175C129.233 62.0005 129.36 60.5224 129.36 59.5033V47.76H131.24V59.5033H131.239ZM115.642 57.3371C115.642 60.0099 114.474 62.405 112.541 64.2142C113.406 64.9533 114.194 65.2593 115.337 65.2344V66.938C113.483 66.938 112.49 66.5311 111.142 65.3103C109.487 66.4041 107.477 66.938 105.492 66.938C100.097 66.938 95.3667 62.787 95.3667 57.26C95.3667 51.5775 99.918 47.4278 105.517 47.4278C111.191 47.4278 115.642 51.6036 115.642 57.3371ZM92.4104 66.607H90.5311V47.7588H92.4104V66.607ZM88.416 49.4623H84.116V66.607H82.2367V49.4623H77.9106V47.7588H88.416V49.4623ZM77.0432 53.3879C77.0432 55.2231 76.2304 56.8792 74.7054 57.9231C73.2799 58.89 71.5239 59.0169 69.8437 59.0169H66.4844V59.0217H66.4832V66.6094H64.6028V59.0217H60.5587C59.6641 63.5724 55.5204 66.9403 50.7713 66.9403C46.2307 66.9403 42.1356 63.7598 41.0893 59.4404L38.9375 58.5887C38.6472 58.4736 38.46 58.1889 38.4683 57.8769L38.5133 56.3584C38.5216 56.0737 38.6922 55.8186 38.9517 55.7024L41.1758 54.7153C42.3157 50.4897 46.1892 47.4302 50.7725 47.4302C56.1686 47.4302 60.7447 51.7318 60.7447 57.1853C60.7447 57.2208 60.74 57.2541 60.74 57.2897H64.604V47.7612H69.8437C71.5239 47.7612 73.2799 47.8881 74.7054 48.8538C76.2304 49.8953 77.0432 51.5526 77.0432 53.3879ZM153.247 67.1764V47.1905C153.247 47.1905 153.247 42.3658 148.428 42.3658H35.2998C35.2998 42.3658 30.4808 42.3658 30.4808 47.1905V67.1752C30.4808 67.1752 30.4808 72 35.2998 72H148.428C148.427 72.0012 153.247 72.0012 153.247 67.1764Z" fill="#FAB400"/>
<path d="M183.727 0.549265H176.325V29.5808H183.727V0.549265ZM172.48 18.7165H164.72C163.427 21.5803 160.997 23.6208 157.744 23.6208C153.002 23.6208 149.945 19.4615 149.945 14.9867C149.945 10.512 153.002 6.50814 157.705 6.50814C160.958 6.50814 163.584 8.58894 164.72 11.5713H172.48C172.206 9.88321 171.461 8.23423 170.52 6.82132C167.619 2.43076 162.996 0 157.743 0C149.317 0 142.542 6.50814 142.542 15.0271C142.542 23.5425 149.395 30.1301 157.821 30.1301C164.837 30.1301 170.794 25.5817 172.48 18.7165ZM138.461 0.549265H131.059V29.5808H138.461V0.549265ZM125.685 8.78705V0.549265H118.871V7.21518H121.967V8.55097C121.967 10.2794 120.046 10.0445 118.871 10.0445V13.5311H121.692C124.394 13.5323 125.685 11.2593 125.685 8.78705ZM107.74 15.1042C107.74 19.8139 105.7 23.0727 100.642 23.0727H97.4664V7.0574H100.682C105.622 7.0574 107.74 10.4728 107.74 15.1042ZM115.142 14.9867C115.142 11.7683 114.359 8.58894 112.479 5.96006C109.189 1.41172 104.917 0.549265 99.6621 0.549265H90.0642V29.5808H100.212C109.698 29.5808 115.142 24.5224 115.142 14.9867ZM73.7562 29.5808V23.0727H64.7426V18.0842H73.4825V11.5749H64.7426V7.0574H73.7562V0.549265H57.6532V29.5808H73.7562ZM52.4752 18.089V0.549265H45.073V18.089C45.073 20.8353 44.8775 23.6219 41.3867 23.6219C38.0536 23.6219 37.6223 20.7178 37.6223 18.089V0.549265H30.2201V18.089C30.2201 21.7772 30.4938 24.2483 33.1184 27.0326C35.2335 29.2676 38.4458 30.1301 41.4661 30.1301C44.5647 30.1301 47.3848 29.2285 49.578 26.9935C52.083 24.4832 52.4752 21.5411 52.4752 18.089ZM27.0421 0.549265H19.3994L13.5199 20.9136H13.4417L7.6036 0.549265H0L9.68076 29.5808H17.3235L27.0421 0.549265Z" fill="white"/>
</svg>
