<svg width="150" height="39" viewBox="0 0 150 39" fill="none" xmlns="http://www.w3.org/2000/svg">
<path fill-rule="evenodd" clip-rule="evenodd" d="M88.6128 13.3523H75.1546L68.4224 21.2179L75.779 0H63.9713L51.1375 36.6339H62.9389L66.2525 27.4275L68.1133 36.6339H80.434L78.363 25.4565L88.6128 13.3523Z" fill="black"/>
<path fill-rule="evenodd" clip-rule="evenodd" d="M43.7624 13.3831L35.5836 36.6708H47.181L55.3598 13.3831H43.7624Z" fill="black"/>
<path fill-rule="evenodd" clip-rule="evenodd" d="M52.6644 10.9303C54.822 10.6152 57.0908 9.92314 58.2715 7.79764C59.137 6.10466 58.8155 4.05949 57.7831 2.56424C56.114 0.809468 53.8143 0.636462 51.3724 0.784753C49.1283 1.09987 46.8595 2.2244 46.0497 4.54762C45.6788 6.01198 45.7591 7.79764 46.7421 8.97161C48.1763 10.7326 50.5069 10.9859 52.6644 10.9303Z" fill="black"/>
<path fill-rule="evenodd" clip-rule="evenodd" d="M32.406 0L27.2255 15.0082L23.2938 0H12.8338L0 36.6339H12.2156L17.0809 22.6637L20.7035 36.6339H31.7817L44.6217 0H32.406Z" fill="black"/>
<path fill-rule="evenodd" clip-rule="evenodd" d="M114.299 18.4435C113.267 15.799 110.763 13.76 108.086 13.0989C100.754 11.1464 91.4627 11.9187 86.4058 18.0419C83.4755 21.8048 81.7508 27.4707 83.933 32.2407C84.9963 35.0273 87.9575 37.0416 90.7456 37.5606C96.9028 38.3638 104.834 38.7098 109.786 34.1993C114.41 30.3438 115.968 23.9055 114.299 18.4435ZM99.116 29.7692C98.4236 30.0287 97.3047 30.1399 96.6741 29.6518C95.209 28.8485 95.6974 27.0382 95.8705 25.8271C96.5628 23.5842 97.3356 20.4207 100.13 19.9944C101.045 19.9079 102.201 20.3095 102.572 21.3722C102.825 24.6223 101.892 27.9217 99.116 29.7692Z" fill="black"/>
<path fill-rule="evenodd" clip-rule="evenodd" d="M141.617 13.0743C136.443 13.0743 133.024 15.3481 131.262 16.9052L132.61 13.3833H120.394L112.216 36.6648H124.431L128.369 25.4875C128.987 23.7265 130.026 22.8986 131.788 22.8986C133.55 22.8986 133.964 24.6595 133.445 26.1053L129.717 36.6586H141.518L146.798 21.5516C148.244 17.418 146.792 13.0743 141.617 13.0743Z" fill="black"/>
<path fill-rule="evenodd" clip-rule="evenodd" d="M147.57 31.7897C146.223 31.7835 145.135 32.871 145.129 34.218C145.129 35.5649 146.217 36.6586 147.564 36.6586H147.57C148.912 36.6586 150 35.5649 150 34.2241V34.218C150 32.8772 148.912 31.7897 147.57 31.7897ZM147.583 36.3682C147.577 36.3682 147.577 36.3682 147.57 36.3682C146.39 36.3682 145.425 35.4105 145.425 34.2303C145.425 34.2241 145.425 34.2241 145.425 34.218C145.425 33.0378 146.384 32.0801 147.564 32.0801C147.564 32.0801 147.564 32.0801 147.57 32.0801C148.751 32.0801 149.709 33.0378 149.709 34.218C149.716 35.3981 148.764 36.362 147.583 36.3682Z" fill="black"/>
<path fill-rule="evenodd" clip-rule="evenodd" d="M148.825 33.5816C148.825 33.3529 148.72 33.112 148.516 32.9946C148.312 32.871 148.084 32.8586 147.855 32.8586H146.668V35.5835H147.002V34.3292H147.614L148.393 35.5835H148.788L147.966 34.3292C148.448 34.3168 148.825 34.1191 148.825 33.5816ZM147.509 34.0635H147.002V33.0996H147.781C148.114 33.0996 148.492 33.149 148.492 33.5692C148.485 34.1253 147.892 34.0635 147.509 34.0635Z" fill="black"/>
</svg>
